<mxfile host="app.diagrams.net" modified="2023-10-30T12:24:35.140Z" agent="Mozilla/5.0 (X11; Linux x86_64) AppleWebKit/537.36 (KHTML, like Gecko) Chrome/117.0.0.0 Safari/537.36" version="22.0.8" etag="3GjhhNdhaBCN9364kIpW" type="github">
  <diagram name="Page-1" id="zO1ed0vtufMPX-EfpjqE">
    <mxGraphModel>
      <root>
        <mxCell id="0" />
        <mxCell id="1" parent="0" />
      </root>
    </mxGraphModel>
  </diagram>
</mxfile>
